<?xml version="1.0" encoding="utf-8" standalone="no"?>
<!DOCTYPE svg PUBLIC "-//W3C//DTD SVG 1.1//EN"
  "http://www.w3.org/Graphics/SVG/1.1/DTD/svg11.dtd">
<svg xmlns:xlink="http://www.w3.org/1999/xlink" width="777.6pt" height="604.8pt" viewBox="0 0 777.6 604.8" xmlns="http://www.w3.org/2000/svg" version="1.1">
 <metadata>
  <rdf:RDF xmlns:dc="http://purl.org/dc/elements/1.1/" xmlns:cc="http://creativecommons.org/ns#" xmlns:rdf="http://www.w3.org/1999/02/22-rdf-syntax-ns#">
   <cc:Work>
    <dc:type rdf:resource="http://purl.org/dc/dcmitype/StillImage"/>
    <dc:date>2026-06-03T13:10:36.456466</dc:date>
    <dc:format>image/svg+xml</dc:format>
    <dc:creator>
     <cc:Agent>
      <dc:title>Matplotlib v3.10.6, https://matplotlib.org/</dc:title>
     </cc:Agent>
    </dc:creator>
   </cc:Work>
  </rdf:RDF>
 </metadata>
 <defs>
  <style type="text/css">*{stroke-linejoin: round; stroke-linecap: butt}</style>
 </defs>
 <g id="figure_1">
  <g id="patch_1">
   <path d="M 0 604.8 
L 777.6 604.8 
L 777.6 0 
L 0 0 
L 0 604.8 
z
" style="fill: none"/>
  </g>
  <g id="axes_1">
   <g id="patch_2">
    <path d="M 110.468 478.744 
L 743.472 478.744 
L 743.472 82.808 
L 110.468 82.808 
L 110.468 478.744 
z
" style="fill: none"/>
   </g>
   <g id="patch_3">
    <path d="M 589.632713 176.890192 
Q 577.81935 181.766891 571.134408 189.10002 
" clip-path="url(#p4561eba653)" style="fill: none; opacity: 0.8; stroke: #f4a261; stroke-width: 2.556; stroke-linecap: round"/>
    <path d="M 575.540874 187.401262 
L 571.134408 189.10002 
L 572.419282 184.555592 
z
" clip-path="url(#p4561eba653)" style="fill: #f4a261; opacity: 0.8; stroke: #f4a261; stroke-width: 2.556; stroke-linecap: round"/>
   </g>
   <g id="patch_4">
    <path d="M 570.66885 202.043219 
Q 573.087892 203.105472 573.031774 203.097644 
" clip-path="url(#p4561eba653)" style="fill: none; opacity: 0.8; stroke: #f4a261; stroke-width: 2.556; stroke-linecap: round"/>
    <path d="M 569.140032 200.422375 
L 573.031774 203.097644 
L 568.556513 204.605876 
z
" clip-path="url(#p4561eba653)" style="fill: #f4a261; opacity: 0.8; stroke: #f4a261; stroke-width: 2.556; stroke-linecap: round"/>
   </g>
   <g id="patch_5">
    <path d="M 568.015003 202.429114 
Q 514.305827 196.278868 469.248825 220.600268 
" clip-path="url(#p4561eba653)" style="fill: none; opacity: 0.8; stroke: #f4a261; stroke-width: 2.556; stroke-linecap: round"/>
    <path d="M 473.969083 220.45236 
L 469.248825 220.600268 
L 471.962654 216.735316 
z
" clip-path="url(#p4561eba653)" style="fill: #f4a261; opacity: 0.8; stroke: #f4a261; stroke-width: 2.556; stroke-linecap: round"/>
   </g>
   <g id="patch_6">
    <path d="M 452.190835 223.831353 
Q 356.799506 199.70899 268.647023 236.537224 
" clip-path="url(#p4561eba653)" style="fill: none; opacity: 0.8; stroke: #f4a261; stroke-width: 2.556; stroke-linecap: round"/>
    <path d="M 273.358714 236.857684 
L 268.647023 236.537224 
L 271.730406 232.960148 
z
" clip-path="url(#p4561eba653)" style="fill: #f4a261; opacity: 0.8; stroke: #f4a261; stroke-width: 2.556; stroke-linecap: round"/>
   </g>
   <g id="patch_7">
    <path d="M 256.346494 248.330833 
Q 256.237088 249.077931 256.408725 246.982321 
" clip-path="url(#p4561eba653)" style="fill: none; opacity: 0.8; stroke: #f4a261; stroke-width: 2.556; stroke-linecap: round"/>
    <path d="M 258.858479 242.944819 
L 256.408725 246.982321 
L 254.648576 242.600016 
z
" clip-path="url(#p4561eba653)" style="fill: #f4a261; opacity: 0.8; stroke: #f4a261; stroke-width: 2.556; stroke-linecap: round"/>
   </g>
   <g id="patch_8">
    <path d="M 258.924659 265.360631 
Q 271.91393 308.115862 304.393355 334.47106 
" clip-path="url(#p4561eba653)" style="fill: none; opacity: 0.8; stroke: #f4a261; stroke-width: 2.556; stroke-linecap: round"/>
    <path d="M 302.444121 330.169525 
L 304.393355 334.47106 
L 299.782586 333.449527 
z
" clip-path="url(#p4561eba653)" style="fill: #f4a261; opacity: 0.8; stroke: #f4a261; stroke-width: 2.556; stroke-linecap: round"/>
   </g>
   <g id="patch_9">
    <path d="M 316.682221 348.063506 
Q 330.419695 371.118011 351.578531 382.401227 
" clip-path="url(#p4561eba653)" style="fill: none; opacity: 0.8; stroke: #f4a261; stroke-width: 2.556; stroke-linecap: round"/>
    <path d="M 348.845142 378.550083 
L 351.578531 382.401227 
L 346.857583 382.277251 
z
" clip-path="url(#p4561eba653)" style="fill: #f4a261; opacity: 0.8; stroke: #f4a261; stroke-width: 2.556; stroke-linecap: round"/>
   </g>
   <g id="patch_10">
    <path d="M 368.721301 389.760218 
Q 448.350633 415.617286 525.065062 390.045402 
" clip-path="url(#p4561eba653)" style="fill: none; opacity: 0.8; stroke: #f4a261; stroke-width: 2.556; stroke-linecap: round"/>
    <path d="M 520.389947 389.377551 
L 525.065062 390.045402 
L 521.725712 393.384783 
z
" clip-path="url(#p4561eba653)" style="fill: #f4a261; opacity: 0.8; stroke: #f4a261; stroke-width: 2.556; stroke-linecap: round"/>
   </g>
   <g id="patch_11">
    <path d="M 571.759743 194.842481 
Q 583.573106 189.965782 590.258048 182.632653 
" clip-path="url(#p4561eba653)" style="fill: none; opacity: 0.72; stroke: #e9a6a6; stroke-width: 2.556; stroke-linecap: round"/>
    <path d="M 585.851582 184.33141 
L 590.258048 182.632653 
L 588.973174 187.17708 
z
" clip-path="url(#p4561eba653)" style="fill: #e9a6a6; opacity: 0.72; stroke: #e9a6a6; stroke-width: 2.556; stroke-linecap: round"/>
   </g>
   <g id="patch_12">
    <path d="M 569.45331 198.840279 
Q 567.034268 197.778026 567.090386 197.785854 
" clip-path="url(#p4561eba653)" style="fill: none; opacity: 0.72; stroke: #e9a6a6; stroke-width: 2.556; stroke-linecap: round"/>
    <path d="M 570.982128 200.461123 
L 567.090386 197.785854 
L 571.565647 196.277622 
z
" clip-path="url(#p4561eba653)" style="fill: #e9a6a6; opacity: 0.72; stroke: #e9a6a6; stroke-width: 2.556; stroke-linecap: round"/>
   </g>
   <g id="patch_13">
    <path d="M 467.689343 226.927283 
Q 521.398518 233.077529 566.455521 208.756129 
" clip-path="url(#p4561eba653)" style="fill: none; opacity: 0.72; stroke: #e9a6a6; stroke-width: 2.556; stroke-linecap: round"/>
    <path d="M 561.735262 208.904037 
L 566.455521 208.756129 
L 563.741692 212.621081 
z
" clip-path="url(#p4561eba653)" style="fill: #e9a6a6; opacity: 0.72; stroke: #e9a6a6; stroke-width: 2.556; stroke-linecap: round"/>
   </g>
   <g id="patch_14">
    <path d="M 266.392738 242.810984 
Q 361.784067 266.933347 449.93655 230.105112 
" clip-path="url(#p4561eba653)" style="fill: none; opacity: 0.72; stroke: #e9a6a6; stroke-width: 2.556; stroke-linecap: round"/>
    <path d="M 445.224859 229.784652 
L 449.93655 230.105112 
L 446.853167 233.682188 
z
" clip-path="url(#p4561eba653)" style="fill: #e9a6a6; opacity: 0.72; stroke: #e9a6a6; stroke-width: 2.556; stroke-linecap: round"/>
   </g>
   <g id="patch_15">
    <path d="M 259.202438 250.174033 
Q 259.311844 249.426935 259.140208 251.522545 
" clip-path="url(#p4561eba653)" style="fill: none; opacity: 0.72; stroke: #e9a6a6; stroke-width: 2.556; stroke-linecap: round"/>
    <path d="M 256.690453 255.560047 
L 259.140208 251.522545 
L 260.900356 255.90485 
z
" clip-path="url(#p4561eba653)" style="fill: #e9a6a6; opacity: 0.72; stroke: #e9a6a6; stroke-width: 2.556; stroke-linecap: round"/>
   </g>
   <g id="patch_16">
    <path d="M 310.766843 333.477308 
Q 297.777573 290.722077 265.298148 264.366879 
" clip-path="url(#p4561eba653)" style="fill: none; opacity: 0.72; stroke: #e9a6a6; stroke-width: 2.556; stroke-linecap: round"/>
    <path d="M 267.247382 268.668414 
L 265.298148 264.366879 
L 269.908916 265.388412 
z
" clip-path="url(#p4561eba653)" style="fill: #e9a6a6; opacity: 0.72; stroke: #e9a6a6; stroke-width: 2.556; stroke-linecap: round"/>
   </g>
   <g id="patch_17">
    <path d="M 357.427097 380.258332 
Q 343.689623 357.203827 322.530787 345.920611 
" clip-path="url(#p4561eba653)" style="fill: none; opacity: 0.72; stroke: #e9a6a6; stroke-width: 2.556; stroke-linecap: round"/>
    <path d="M 325.264176 349.771754 
L 322.530787 345.920611 
L 327.251735 346.044586 
z
" clip-path="url(#p4561eba653)" style="fill: #e9a6a6; opacity: 0.72; stroke: #e9a6a6; stroke-width: 2.556; stroke-linecap: round"/>
   </g>
   <g id="patch_18">
    <path d="M 527.759291 383.982673 
Q 448.129959 358.125605 371.41553 383.697489 
" clip-path="url(#p4561eba653)" style="fill: none; opacity: 0.72; stroke: #e9a6a6; stroke-width: 2.556; stroke-linecap: round"/>
    <path d="M 376.090644 384.36534 
L 371.41553 383.697489 
L 374.754879 380.358108 
z
" clip-path="url(#p4561eba653)" style="fill: #e9a6a6; opacity: 0.72; stroke: #e9a6a6; stroke-width: 2.556; stroke-linecap: round"/>
   </g>
   <g id="matplotlib.axis_1">
    <g id="xtick_1">
     <g id="line2d_1">
      <defs>
       <path id="m007cd8a713" d="M 0 0 
L 0 3.5 
" style="stroke: #2f3437; stroke-width: 0.8"/>
      </defs>
      <g>
       <use xlink:href="#m007cd8a713" x="202.665064" y="478.744" style="fill: #2f3437; stroke: #2f3437; stroke-width: 0.8"/>
      </g>
     </g>
     <g id="text_1">
      <text style="font-size: 15px; font-family: 'DejaVu Sans'; text-anchor: middle; fill: #2f3437" x="202.665064" y="497.141656" transform="rotate(-0 202.665064 497.141656)">450</text>
     </g>
    </g>
    <g id="xtick_2">
     <g id="line2d_2">
      <g>
       <use xlink:href="#m007cd8a713" x="299.348226" y="478.744" style="fill: #2f3437; stroke: #2f3437; stroke-width: 0.8"/>
      </g>
     </g>
     <g id="text_2">
      <text style="font-size: 15px; font-family: 'DejaVu Sans'; text-anchor: middle; fill: #2f3437" x="299.348226" y="497.141656" transform="rotate(-0 299.348226 497.141656)">500</text>
     </g>
    </g>
    <g id="xtick_3">
     <g id="line2d_3">
      <g>
       <use xlink:href="#m007cd8a713" x="396.031388" y="478.744" style="fill: #2f3437; stroke: #2f3437; stroke-width: 0.8"/>
      </g>
     </g>
     <g id="text_3">
      <text style="font-size: 15px; font-family: 'DejaVu Sans'; text-anchor: middle; fill: #2f3437" x="396.031388" y="497.141656" transform="rotate(-0 396.031388 497.141656)">550</text>
     </g>
    </g>
    <g id="xtick_4">
     <g id="line2d_4">
      <g>
       <use xlink:href="#m007cd8a713" x="492.71455" y="478.744" style="fill: #2f3437; stroke: #2f3437; stroke-width: 0.8"/>
      </g>
     </g>
     <g id="text_4">
      <text style="font-size: 15px; font-family: 'DejaVu Sans'; text-anchor: middle; fill: #2f3437" x="492.71455" y="497.141656" transform="rotate(-0 492.71455 497.141656)">600</text>
     </g>
    </g>
    <g id="xtick_5">
     <g id="line2d_5">
      <g>
       <use xlink:href="#m007cd8a713" x="589.397713" y="478.744" style="fill: #2f3437; stroke: #2f3437; stroke-width: 0.8"/>
      </g>
     </g>
     <g id="text_5">
      <text style="font-size: 15px; font-family: 'DejaVu Sans'; text-anchor: middle; fill: #2f3437" x="589.397713" y="497.141656" transform="rotate(-0 589.397713 497.141656)">650</text>
     </g>
    </g>
    <g id="xtick_6">
     <g id="line2d_6">
      <g>
       <use xlink:href="#m007cd8a713" x="686.080875" y="478.744" style="fill: #2f3437; stroke: #2f3437; stroke-width: 0.8"/>
      </g>
     </g>
     <g id="text_6">
      <text style="font-size: 15px; font-family: 'DejaVu Sans'; text-anchor: middle; fill: #2f3437" x="686.080875" y="497.141656" transform="rotate(-0 686.080875 497.141656)">700</text>
     </g>
    </g>
    <g id="text_7">
     <text style="font-size: 18px; font-family: 'DejaVu Sans'; text-anchor: middle; fill: #2f3437" x="426.97" y="517.938375" transform="rotate(-0 426.97 517.938375)">x-koordinata pogleda</text>
    </g>
   </g>
   <g id="matplotlib.axis_2">
    <g id="ytick_1">
     <g id="line2d_7">
      <defs>
       <path id="m9ccfcc645d" d="M 0 0 
L -3.5 0 
" style="stroke: #2f3437; stroke-width: 0.8"/>
      </defs>
      <g>
       <use xlink:href="#m9ccfcc645d" x="110.468" y="123.497129" style="fill: #2f3437; stroke: #2f3437; stroke-width: 0.8"/>
      </g>
     </g>
     <g id="text_8">
      <text style="font-size: 15px; font-family: 'DejaVu Sans'; text-anchor: end; fill: #2f3437" x="103.468" y="129.195957" transform="rotate(-0 103.468 129.195957)">100</text>
     </g>
    </g>
    <g id="ytick_2">
     <g id="line2d_8">
      <g>
       <use xlink:href="#m9ccfcc645d" x="110.468" y="191.289746" style="fill: #2f3437; stroke: #2f3437; stroke-width: 0.8"/>
      </g>
     </g>
     <g id="text_9">
      <text style="font-size: 15px; font-family: 'DejaVu Sans'; text-anchor: end; fill: #2f3437" x="103.468" y="196.988574" transform="rotate(-0 103.468 196.988574)">200</text>
     </g>
    </g>
    <g id="ytick_3">
     <g id="line2d_9">
      <g>
       <use xlink:href="#m9ccfcc645d" x="110.468" y="259.082363" style="fill: #2f3437; stroke: #2f3437; stroke-width: 0.8"/>
      </g>
     </g>
     <g id="text_10">
      <text style="font-size: 15px; font-family: 'DejaVu Sans'; text-anchor: end; fill: #2f3437" x="103.468" y="264.781191" transform="rotate(-0 103.468 264.781191)">300</text>
     </g>
    </g>
    <g id="ytick_4">
     <g id="line2d_10">
      <g>
       <use xlink:href="#m9ccfcc645d" x="110.468" y="326.87498" style="fill: #2f3437; stroke: #2f3437; stroke-width: 0.8"/>
      </g>
     </g>
     <g id="text_11">
      <text style="font-size: 15px; font-family: 'DejaVu Sans'; text-anchor: end; fill: #2f3437" x="103.468" y="332.573808" transform="rotate(-0 103.468 332.573808)">400</text>
     </g>
    </g>
    <g id="ytick_5">
     <g id="line2d_11">
      <g>
       <use xlink:href="#m9ccfcc645d" x="110.468" y="394.667596" style="fill: #2f3437; stroke: #2f3437; stroke-width: 0.8"/>
      </g>
     </g>
     <g id="text_12">
      <text style="font-size: 15px; font-family: 'DejaVu Sans'; text-anchor: end; fill: #2f3437" x="103.468" y="400.366425" transform="rotate(-0 103.468 400.366425)">500</text>
     </g>
    </g>
    <g id="ytick_6">
     <g id="line2d_12">
      <g>
       <use xlink:href="#m9ccfcc645d" x="110.468" y="462.460213" style="fill: #2f3437; stroke: #2f3437; stroke-width: 0.8"/>
      </g>
     </g>
     <g id="text_13">
      <text style="font-size: 15px; font-family: 'DejaVu Sans'; text-anchor: end; fill: #2f3437" x="103.468" y="468.159042" transform="rotate(-0 103.468 468.159042)">600</text>
     </g>
    </g>
    <g id="text_14">
     <text style="font-size: 18px; font-family: 'DejaVu Sans'; text-anchor: middle; fill: #2f3437" x="67.093313" y="280.776" transform="rotate(-90 67.093313 280.776)">y-koordinata pogleda</text>
    </g>
   </g>
   <g id="patch_19">
    <path d="M 110.468 478.744 
L 110.468 82.808 
" style="fill: none; stroke: #cfd8dc; stroke-width: 0.7; stroke-linejoin: miter; stroke-linecap: square"/>
   </g>
   <g id="patch_20">
    <path d="M 743.472 478.744 
L 743.472 82.808 
" style="fill: none; stroke: #cfd8dc; stroke-width: 0.7; stroke-linejoin: miter; stroke-linecap: square"/>
   </g>
   <g id="patch_21">
    <path d="M 110.468 478.744 
L 743.472 478.744 
" style="fill: none; stroke: #cfd8dc; stroke-width: 0.7; stroke-linejoin: miter; stroke-linecap: square"/>
   </g>
   <g id="patch_22">
    <path d="M 110.468 82.808 
L 743.472 82.808 
" style="fill: none; stroke: #cfd8dc; stroke-width: 0.7; stroke-linejoin: miter; stroke-linecap: square"/>
   </g>
   <g id="PathCollection_1">
    <defs>
     <path id="m5e064bfc73" d="M 0 10.246951 
C 2.717523 10.246951 5.324109 9.167267 7.245688 7.245688 
C 9.167267 5.324109 10.246951 2.717523 10.246951 0 
C 10.246951 -2.717523 9.167267 -5.324109 7.245688 -7.245688 
C 5.324109 -9.167267 2.717523 -10.246951 0 -10.246951 
C -2.717523 -10.246951 -5.324109 -9.167267 -7.245688 -7.245688 
C -9.167267 -5.324109 -10.246951 -2.717523 -10.246951 0 
C -10.246951 2.717523 -9.167267 5.324109 -7.245688 7.245688 
C -5.324109 9.167267 -2.717523 10.246951 0 10.246951 
z
" style="stroke: #2f3437; stroke-width: 0.9"/>
    </defs>
    <g clip-path="url(#p4561eba653)">
     <use xlink:href="#m5e064bfc73" x="597.132366" y="174.341591" style="fill: #a8dadc; stroke: #2f3437; stroke-width: 0.9"/>
    </g>
   </g>
   <g id="PathCollection_2">
    <g clip-path="url(#p4561eba653)">
     <use xlink:href="#m5e064bfc73" x="564.26009" y="197.391081" style="fill: #a8dadc; stroke: #2f3437; stroke-width: 0.9"/>
    </g>
   </g>
   <g id="PathCollection_3">
    <g clip-path="url(#p4561eba653)">
     <use xlink:href="#m5e064bfc73" x="575.86207" y="203.492417" style="fill: #a8dadc; stroke: #2f3437; stroke-width: 0.9"/>
    </g>
   </g>
   <g id="PathCollection_4">
    <defs>
     <path id="m69a2b4c8a3" d="M 0 10.246951 
C 2.717523 10.246951 5.324109 9.167267 7.245688 7.245688 
C 9.167267 5.324109 10.246951 2.717523 10.246951 0 
C 10.246951 -2.717523 9.167267 -5.324109 7.245688 -7.245688 
C 5.324109 -9.167267 2.717523 -10.246951 0 -10.246951 
C -2.717523 -10.246951 -5.324109 -9.167267 -7.245688 -7.245688 
C -9.167267 -5.324109 -10.246951 -2.717523 -10.246951 0 
C -10.246951 2.717523 -9.167267 5.324109 -7.245688 7.245688 
C -5.324109 9.167267 -2.717523 10.246951 0 10.246951 
z
" style="stroke: #2f3437; stroke-width: 0.9"/>
    </defs>
    <g clip-path="url(#p4561eba653)">
     <use xlink:href="#m69a2b4c8a3" x="459.842275" y="225.86398" style="fill: #f4a261; stroke: #2f3437; stroke-width: 0.9"/>
    </g>
   </g>
   <g id="PathCollection_5">
    <g clip-path="url(#p4561eba653)">
     <use xlink:href="#m69a2b4c8a3" x="258.741298" y="240.778356" style="fill: #f4a261; stroke: #2f3437; stroke-width: 0.9"/>
    </g>
   </g>
   <g id="PathCollection_6">
    <g clip-path="url(#p4561eba653)">
     <use xlink:href="#m69a2b4c8a3" x="256.807634" y="257.72651" style="fill: #f4a261; stroke: #2f3437; stroke-width: 0.9"/>
    </g>
   </g>
   <g id="PathCollection_7">
    <defs>
     <path id="m2a53756ce3" d="M 0 10.246951 
C 2.717523 10.246951 5.324109 9.167267 7.245688 7.245688 
C 9.167267 5.324109 10.246951 2.717523 10.246951 0 
C 10.246951 -2.717523 9.167267 -5.324109 7.245688 -7.245688 
C 5.324109 -9.167267 2.717523 -10.246951 0 -10.246951 
C -2.717523 -10.246951 -5.324109 -9.167267 -7.245688 -7.245688 
C -9.167267 -5.324109 -10.246951 -2.717523 -10.246951 0 
C -10.246951 2.717523 -9.167267 5.324109 -7.245688 7.245688 
C -5.324109 9.167267 -2.717523 10.246951 0 10.246951 
z
" style="stroke: #2f3437; stroke-width: 0.9"/>
    </defs>
    <g clip-path="url(#p4561eba653)">
     <use xlink:href="#m2a53756ce3" x="312.883869" y="341.111429" style="fill: #b8a1d9; stroke: #2f3437; stroke-width: 0.9"/>
    </g>
   </g>
   <g id="PathCollection_8">
    <g clip-path="url(#p4561eba653)">
     <use xlink:href="#m2a53756ce3" x="361.22545" y="387.210409" style="fill: #b8a1d9; stroke: #2f3437; stroke-width: 0.9"/>
    </g>
   </g>
   <g id="PathCollection_9">
    <g clip-path="url(#p4561eba653)">
     <use xlink:href="#m2a53756ce3" x="535.255142" y="386.532482" style="fill: #b8a1d9; stroke: #2f3437; stroke-width: 0.9"/>
    </g>
   </g>
   <g id="text_15">
    <!-- časovne povezave, $k_t=1$ -->
    <g style="fill: #2f3437" transform="translate(294.25 65.808)">
     <text>
      <tspan x="0" y="-0.203125" style="font-size: 21px; font-family: 'DejaVu Sans'; fill: #2f3437">č</tspan>
      <tspan x="11.545898" y="-0.203125" style="font-size: 21px; font-family: 'DejaVu Sans'; fill: #2f3437">a</tspan>
      <tspan x="24.414551" y="-0.203125" style="font-size: 21px; font-family: 'DejaVu Sans'; fill: #2f3437">s</tspan>
      <tspan x="35.355469" y="-0.203125" style="font-size: 21px; font-family: 'DejaVu Sans'; fill: #2f3437">o</tspan>
      <tspan x="48.203613" y="-0.203125" style="font-size: 21px; font-family: 'DejaVu Sans'; fill: #2f3437">v</tspan>
      <tspan x="60.631348" y="-0.203125" style="font-size: 21px; font-family: 'DejaVu Sans'; fill: #2f3437">n</tspan>
      <tspan x="73.940918" y="-0.203125" style="font-size: 21px; font-family: 'DejaVu Sans'; fill: #2f3437">e</tspan>
      <tspan x="86.86084" y="-0.203125" style="font-size: 21px; font-family: 'DejaVu Sans'; fill: #2f3437"> </tspan>
      <tspan x="93.536133" y="-0.203125" style="font-size: 21px; font-family: 'DejaVu Sans'; fill: #2f3437">p</tspan>
      <tspan x="106.866211" y="-0.203125" style="font-size: 21px; font-family: 'DejaVu Sans'; fill: #2f3437">o</tspan>
      <tspan x="119.714355" y="-0.203125" style="font-size: 21px; font-family: 'DejaVu Sans'; fill: #2f3437">v</tspan>
      <tspan x="132.14209" y="-0.203125" style="font-size: 21px; font-family: 'DejaVu Sans'; fill: #2f3437">e</tspan>
      <tspan x="145.062012" y="-0.203125" style="font-size: 21px; font-family: 'DejaVu Sans'; fill: #2f3437">z</tspan>
      <tspan x="156.084961" y="-0.203125" style="font-size: 21px; font-family: 'DejaVu Sans'; fill: #2f3437">a</tspan>
      <tspan x="168.953613" y="-0.203125" style="font-size: 21px; font-family: 'DejaVu Sans'; fill: #2f3437">v</tspan>
      <tspan x="181.381348" y="-0.203125" style="font-size: 21px; font-family: 'DejaVu Sans'; fill: #2f3437">e</tspan>
      <tspan x="194.30127" y="-0.203125" style="font-size: 21px; font-family: 'DejaVu Sans'; fill: #2f3437">,</tspan>
      <tspan x="200.976562" y="-0.203125" style="font-size: 21px; font-family: 'DejaVu Sans'; fill: #2f3437"> </tspan>
      <tspan x="230.242236" y="-0.203125" style="font-size: 21px; font-family: 'DejaVu Sans'; fill: #2f3437">=</tspan>
      <tspan x="251.929248" y="-0.203125" style="font-size: 21px; font-family: 'DejaVu Sans'; fill: #2f3437">1</tspan>
      <tspan x="207.651855" y="-0.203125" style="font-style: oblique; font-size: 21px; font-family: 'DejaVu Sans'; fill: #2f3437">k</tspan>
      <tspan x="219.812988" y="3.242188" style="font-style: oblique; font-size: 14.7px; font-family: 'DejaVu Sans'; fill: #2f3437">t</tspan>
     </text>
    </g>
   </g>
   <g id="text_16">
    <text style="font-size: 15.4px; font-family: 'DejaVu Sans'; text-anchor: middle; fill: #2f3437" x="597.132366" y="178.591029" transform="rotate(-0 597.132366 178.591029)">0</text>
   </g>
   <g id="text_17">
    <text style="font-size: 15.4px; font-family: 'DejaVu Sans'; text-anchor: middle; fill: #2f3437" x="564.26009" y="201.640519" transform="rotate(-0 564.26009 201.640519)">1</text>
   </g>
   <g id="text_18">
    <text style="font-size: 15.4px; font-family: 'DejaVu Sans'; text-anchor: middle; fill: #2f3437" x="575.86207" y="207.741854" transform="rotate(-0 575.86207 207.741854)">2</text>
   </g>
   <g id="text_19">
    <text style="font-size: 15.4px; font-family: 'DejaVu Sans'; text-anchor: middle; fill: #2f3437" x="459.842275" y="230.113418" transform="rotate(-0 459.842275 230.113418)">3</text>
   </g>
   <g id="text_20">
    <text style="font-size: 15.4px; font-family: 'DejaVu Sans'; text-anchor: middle; fill: #2f3437" x="258.741298" y="245.027794" transform="rotate(-0 258.741298 245.027794)">4</text>
   </g>
   <g id="text_21">
    <text style="font-size: 15.4px; font-family: 'DejaVu Sans'; text-anchor: middle; fill: #2f3437" x="256.807634" y="261.975948" transform="rotate(-0 256.807634 261.975948)">5</text>
   </g>
   <g id="text_22">
    <text style="font-size: 15.4px; font-family: 'DejaVu Sans'; text-anchor: middle; fill: #2f3437" x="312.883869" y="345.360867" transform="rotate(-0 312.883869 345.360867)">6</text>
   </g>
   <g id="text_23">
    <text style="font-size: 15.4px; font-family: 'DejaVu Sans'; text-anchor: middle; fill: #2f3437" x="361.22545" y="391.459846" transform="rotate(-0 361.22545 391.459846)">7</text>
   </g>
   <g id="text_24">
    <text style="font-size: 15.4px; font-family: 'DejaVu Sans'; text-anchor: middle; fill: #2f3437" x="535.255142" y="390.78192" transform="rotate(-0 535.255142 390.78192)">8</text>
   </g>
  </g>
  <g id="legend_1">
   <g id="line2d_13">
    <path d="M 215.714648 564.057484 
L 231.214648 564.057484 
L 246.714648 564.057484 
" style="fill: none; stroke: #f4a261; stroke-width: 3; stroke-linecap: square"/>
   </g>
   <g id="text_25">
    <text style="font-size: 15.5px; font-family: 'DejaVu Sans'; text-anchor: start" x="259.114648" y="569.482484" transform="rotate(-0 259.114648 569.482484)">časovne naprej</text>
   </g>
   <g id="line2d_14">
    <path d="M 408.183477 564.057484 
L 423.683477 564.057484 
L 439.183477 564.057484 
" style="fill: none; stroke: #e9a6a6; stroke-width: 3; stroke-linecap: square"/>
   </g>
   <g id="text_26">
    <text style="font-size: 15.5px; font-family: 'DejaVu Sans'; text-anchor: start" x="451.583477" y="569.482484" transform="rotate(-0 451.583477 569.482484)">časovne nazaj</text>
   </g>
  </g>
 </g>
 <defs>
  <clipPath id="p4561eba653">
   <rect x="110.468" y="82.808" width="633.004" height="395.936"/>
  </clipPath>
 </defs>
</svg>
